# xmcd CD database file
#
# Track frame offsets:
#	150
#	10784
#	23553
#	38658
#	53739
#	67459
#	81354
#	94665
#	108264
#	120688
#	135502
#	149048
#	161488
#	175064
#	187309
#	200637
#	210763
#	223787
#	237795
#	251272
#	263475
#	275827
#	289993
#	302618
#
# Disc length: 4229 seconds
#
# Revision: 4
# Processed by: cddbd v1.5.1PL0 Copyright (c) Steve Scherf et al.
# Submitted via: CDex 1.51
#
DISCID=5f108318
DTITLE=Django Reinhardt - Crazy Rhythm - The Famous 1936-1937 Recordings - CD2
DYEAR=2003
DGENRE=Jazz
TTITLE0=Mystery Pacific [D.Reinhardt - S.Grappelli] [1937]
TTITLE1=Miss Annabelle Lee [Clare - Pollack - Richman] [1937]
TTITLE2=A Little Love, A Little Kiss [Fysher - Ross - Silesu] [1937]
TTITLE3=Liebestraum N°3 [F.Liszt] [1937]
TTITLE4=In A Sentimental Mood [Ellington - Mills - Kurtz] [1937]
TTITLE5=The Sheik Of Araby [Snyder] [1937]
TTITLE6=Improvisation [D.Reinhardt] [1937]
TTITLE7=Parfum [D.Reinhardt] [1937]
TTITLE8=Alabamy Bound [Green - De Sylva - Henderson] [1937]
TTITLE9=Out Of Nowhere [Heyman - Green] [1937]
TTITLE10=Crazy Rhythm [Caesar - Meyer - Wolfe Khan] [1937]
TTITLE11=Honeysuckle Rose [Waller - Razaf] [1937]
TTITLE12=Sweet Georgia Brown [Pinkard - Bernie - Casey] [1937]
TTITLE13=Bugle Call Rag [Pettis - Schoebel - Meyers] [1937]
TTITLE14=Between The Devil And The Blue Sea [Arlen - Koehler] [1937]
TTITLE15=I Got Rhythm [Gershwin] [1937]
TTITLE16=Hangin' Around Boudon [Wells] [1937]
TTITLE17=Sweet Sue, Just You [Harris - Young] [1937]
TTITLE18=Japanese Sandman [Egan - Whiting] [1937]
TTITLE19=St. Louis Blues [Handy] [1937]
TTITLE20=Bouncin'Around [Deloof] [1937]
TTITLE21=Eddie's Blues [E. South - D.Reinhardt] [1937]
TTITLE22=Sweet Georgia Brown [Pinkard - Bernie - Casey] [1937]
TTITLE23=Lady Be Good [Gershwin] [1937]
EXTD=YEAR: 2003
EXTT0=
EXTT1=
EXTT2=
EXTT3=
EXTT4=
EXTT5=
EXTT6=
EXTT7=
EXTT8=
EXTT9=
EXTT10=
EXTT11=
EXTT12=
EXTT13=
EXTT14=
EXTT15=
EXTT16=
EXTT17=
EXTT18=
EXTT19=
EXTT20=
EXTT21=
EXTT22=
EXTT23=
PLAYORDER=
